<?xml version="1.0" encoding="iso-8859-1"?>
<!-- Generator: Adobe Illustrator 24.3.0, SVG Export Plug-In . SVG Version: 6.00 Build 0)  -->
<svg version="1.1" xmlns="http://www.w3.org/2000/svg" xmlns:xlink="http://www.w3.org/1999/xlink" x="0px" y="0px"
	 viewBox="0 0 520 520" style="enable-background:new 0 0 520 520;" xml:space="preserve">
<g id="_x33_1_x2C__Tac_x2C__Toe_x2C__Tic_x2C__Tic_Tac_Toe_x2C__Game">
	<g>
		<rect x="320" y="325" style="fill:#A7C7FC;" width="120" height="120"/>
		<rect x="320" y="205" style="fill:#A7C7FC;" width="120" height="120"/>
		<rect x="80" y="205" style="fill:#A7C7FC;" width="120" height="120"/>
		<rect x="200" y="85" style="fill:#A7C7FC;" width="120" height="120"/>
		<circle style="fill:#FFFFFF;" cx="140" cy="265" r="20"/>
		<circle style="fill:#FFFFFF;" cx="260" cy="145" r="20"/>
		<circle style="fill:#FFFFFF;" cx="380" cy="265" r="20"/>
		<circle style="fill:#FFFFFF;" cx="380" cy="385" r="20"/>
		<rect x="200" y="325" style="fill:#FFFFFF;" width="120" height="120"/>
		<rect x="320" y="85" style="fill:#FFFFFF;" width="120" height="120"/>
		<rect x="80" y="325" style="fill:#FFFFFF;" width="120" height="120"/>
		<rect x="200" y="205" style="fill:#FFFFFF;" width="120" height="120"/>
		<rect x="80" y="85" style="fill:#FFFFFF;" width="120" height="120"/>
		<path style="fill:#4D80C9;" d="M327.07,37.93c1.81,1.81,2.93,4.31,2.93,7.07s-1.12,5.26-2.93,7.07C325.26,53.88,322.76,55,320,55
			c-5.52,0-10-4.48-10-10c0-2.76,1.12-5.26,2.93-7.07C314.74,36.12,317.24,35,320,35S325.26,36.12,327.07,37.93z"/>
		<path style="fill:#4D80C9;" d="M448.5,495h-377C48.617,495,30,476.383,30,453.5v-377C30,53.617,48.617,35,71.5,35H280
			c5.522,0,10,4.477,10,10s-4.478,10-10,10H71.5C59.645,55,50,64.645,50,76.5v377c0,11.855,9.645,21.5,21.5,21.5h377
			c11.855,0,21.5-9.645,21.5-21.5v-377c0-11.855-9.645-21.5-21.5-21.5H370c-5.523,0-10-4.477-10-10s4.477-10,10-10h78.5
			c22.883,0,41.5,18.617,41.5,41.5v377C490,476.383,471.383,495,448.5,495z"/>
		<path style="fill:#4D80C9;" d="M440,455H80c-5.523,0-10-4.478-10-10V85c0-5.523,4.477-10,10-10h360c5.522,0,10,4.477,10,10v360
			C450,450.522,445.522,455,440,455z M90,435h340V95H90V435z"/>
		<path style="fill:#4D80C9;" d="M440,215H80c-5.523,0-10-4.477-10-10s4.477-10,10-10h360c5.522,0,10,4.477,10,10
			S445.522,215,440,215z"/>
		<path style="fill:#4D80C9;" d="M440,335H80c-5.523,0-10-4.478-10-10s4.477-10,10-10h360c5.522,0,10,4.478,10,10
			S445.522,335,440,335z"/>
		<path style="fill:#4D80C9;" d="M320,455c-5.523,0-10-4.478-10-10V85c0-5.523,4.477-10,10-10c5.522,0,10,4.477,10,10v360
			C330,450.522,325.522,455,320,455z"/>
		<path style="fill:#4D80C9;" d="M200,455c-5.523,0-10-4.478-10-10V85c0-5.523,4.477-10,10-10c5.523,0,10,4.477,10,10v360
			C210,450.522,205.523,455,200,455z"/>
		<path style="fill:#4D80C9;" d="M360,175c-2.56,0-5.118-0.976-7.071-2.929c-3.905-3.905-3.905-10.237,0-14.143l40-40
			c3.906-3.905,10.236-3.905,14.143,0c3.905,3.905,3.905,10.237,0,14.143l-40,40C365.118,174.024,362.56,175,360,175z"/>
		<path style="fill:#4D80C9;" d="M400,175c-2.56,0-5.118-0.976-7.071-2.929l-40-40c-3.905-3.905-3.905-10.237,0-14.143
			c3.906-3.905,10.236-3.905,14.143,0l40,40c3.905,3.905,3.905,10.237,0,14.143C405.118,174.024,402.56,175,400,175z"/>
		<path style="fill:#4D80C9;" d="M120,175c-2.559,0-5.119-0.976-7.071-2.929c-3.905-3.905-3.905-10.237,0-14.143l40-40
			c3.905-3.905,10.237-3.905,14.143,0c3.905,3.905,3.905,10.237,0,14.143l-40,40C125.119,174.024,122.559,175,120,175z"/>
		<path style="fill:#4D80C9;" d="M160,175c-2.559,0-5.119-0.976-7.071-2.929l-40-40c-3.905-3.905-3.905-10.237,0-14.143
			c3.905-3.905,10.237-3.905,14.143,0l40,40c3.905,3.905,3.905,10.237,0,14.143C165.119,174.024,162.559,175,160,175z"/>
		<path style="fill:#4D80C9;" d="M240,415c-2.559,0-5.119-0.977-7.071-2.929c-3.905-3.905-3.905-10.237,0-14.143l40-40
			c3.906-3.904,10.236-3.904,14.143,0c3.905,3.905,3.905,10.237,0,14.143l-40,40C245.119,414.023,242.559,415,240,415z"/>
		<path style="fill:#4D80C9;" d="M280,415c-2.56,0-5.118-0.977-7.071-2.929l-40-40c-3.905-3.905-3.905-10.237,0-14.143
			c3.905-3.904,10.237-3.904,14.143,0l40,40c3.905,3.905,3.905,10.237,0,14.143C285.118,414.023,282.56,415,280,415z"/>
		<path style="fill:#4D80C9;" d="M240,295c-2.559,0-5.119-0.977-7.071-2.929c-3.905-3.905-3.905-10.237,0-14.143l40-40
			c3.906-3.905,10.236-3.905,14.143,0c3.905,3.905,3.905,10.237,0,14.143l-40,40C245.119,294.023,242.559,295,240,295z"/>
		<path style="fill:#4D80C9;" d="M280,295c-2.56,0-5.118-0.977-7.071-2.929l-40-40c-3.905-3.905-3.905-10.237,0-14.143
			c3.905-3.905,10.237-3.905,14.143,0l40,40c3.905,3.905,3.905,10.237,0,14.143C285.118,294.023,282.56,295,280,295z"/>
		<path style="fill:#4D80C9;" d="M120,415c-2.559,0-5.119-0.977-7.071-2.929c-3.905-3.905-3.905-10.237,0-14.143l40-40
			c3.905-3.904,10.237-3.904,14.143,0c3.905,3.905,3.905,10.237,0,14.143l-40,40C125.119,414.023,122.559,415,120,415z"/>
		<path style="fill:#4D80C9;" d="M160,415c-2.559,0-5.119-0.977-7.071-2.929l-40-40c-3.905-3.905-3.905-10.237,0-14.143
			c3.905-3.904,10.237-3.904,14.143,0l40,40c3.905,3.905,3.905,10.237,0,14.143C165.119,414.023,162.559,415,160,415z"/>
		<path style="fill:#4D80C9;" d="M140,295c-16.542,0-30-13.458-30-30s13.458-30,30-30s30,13.458,30,30S156.542,295,140,295z
			 M140,255c-5.514,0-10,4.486-10,10s4.486,10,10,10c5.514,0,10-4.486,10-10S145.514,255,140,255z"/>
		<path style="fill:#4D80C9;" d="M380,295c-16.542,0-30-13.458-30-30s13.458-30,30-30s30,13.458,30,30S396.542,295,380,295z
			 M380,255c-5.514,0-10,4.486-10,10s4.486,10,10,10s10-4.486,10-10S385.514,255,380,255z"/>
		<path style="fill:#4D80C9;" d="M380,415c-16.542,0-30-13.458-30-30s13.458-30,30-30s30,13.458,30,30S396.542,415,380,415z
			 M380,375c-5.514,0-10,4.486-10,10s4.486,10,10,10s10-4.486,10-10S385.514,375,380,375z"/>
		<path style="fill:#4D80C9;" d="M260,175c-16.542,0-30-13.458-30-30s13.458-30,30-30s30,13.458,30,30S276.542,175,260,175z
			 M260,135c-5.514,0-10,4.486-10,10s4.486,10,10,10c5.514,0,10-4.486,10-10S265.514,135,260,135z"/>
	</g>
</g>
<g id="Layer_1">
</g>
</svg>
